# xmcd
#
# Track frame offsets:
#	150
#	15755
#	39067
#	60105
#	87118
#	108784
#	124238
#	147925
#	176808
#	197690
#	225245
#	252454
#
# Disc length: 3566 seconds
#
# Revision: 1
# Processed by: cddbd v1.5.2PL0 Copyright (c) Steve Scherf et al.
# Submitted via: audiograbber 1.83.01
#
DISCID=860dec0c
DTITLE=Lena and the Deep Soul - Burn
DYEAR=2013
DGENRE=Funk
TTITLE0=Out Of Control
TTITLE1=I Try
TTITLE2=Burning
TTITLE3=I Can't Hide It
TTITLE4=We Don't Need to Hurt Each Other
TTITLE5=Looking for H
TTITLE6=Sexy Man
TTITLE7=I Want to Funk U
TTITLE8=I Try
TTITLE9=Rock n Roll Coaster
TTITLE10=Together
TTITLE11=New Day
EXTD=
EXTT0=
EXTT1=
EXTT2=
EXTT3=
EXTT4=
EXTT5=
EXTT6=
EXTT7=
EXTT8=
EXTT9=
EXTT10=
EXTT11=
PLAYORDER=
